					<svg xmlns="http://www.w3.org/2000/svg" width="86.079" height="86.301" viewBox="0 0 86.079 86.301">
  <g transform="translate(-79 -6145)">
    <path d="M42.309,0A42.652,42.652,0,1,1,0,42.65,42.481,42.481,0,0,1,42.309,0Z" transform="translate(79.5 6145.5)" fill="none" stroke="#20282d" stroke-width="1" />
    <path d="M44.013,0C67.407,0,85.548,20.156,85.548,35.866s-18.14,26.8-41.535,26.8S4.333,49.515,4.333,33.805,20.619,0,44.013,0Z" transform="translate(77.346 6145.5)" fill="none" stroke-width="1" />
    <path d="M39.09,0C57.464-1.365,77.17,14.14,77.17,36.065S62.751,71.013,43.689,70.28s-30.3-21.289-30.3-35.22S20.716,1.361,39.09,0Z" transform="translate(163.809 6144.08) rotate(90)" fill="none" stroke-width="1" />
    <path d="M39.68,0C63.074,0,81.214,20.156,81.214,35.866s-18.14,26.8-41.535,26.8S0,49.515,0,33.805,16.285,0,39.68,0Z" transform="translate(163.153 6147.641) rotate(89)" fill="none" stroke-width="1" />
  </g>
</svg>